<svg width="43" height="42" viewBox="0 0 43 42" fill="none" xmlns="http://www.w3.org/2000/svg">
<rect x="0.859863" width="41.59" height="41.59" rx="7" fill="white"/>
<path d="M21.8409 17.2063C23.8097 17.2063 25.4347 18.8313 25.4347 20.8C25.4347 22.8 23.8097 24.3938 21.8409 24.3938C19.8409 24.3938 18.2472 22.8 18.2472 20.8C18.2472 18.8313 19.8409 17.2063 21.8409 17.2063ZM21.8409 23.1438C23.1222 23.1438 24.1534 22.1125 24.1534 20.8C24.1534 19.5188 23.1222 18.4875 21.8409 18.4875C20.5284 18.4875 19.4972 19.5188 19.4972 20.8C19.4972 22.1125 20.5597 23.1438 21.8409 23.1438ZM26.4034 17.0813C26.4034 17.55 26.0284 17.925 25.5597 17.925C25.0909 17.925 24.7159 17.55 24.7159 17.0813C24.7159 16.6125 25.0909 16.2375 25.5597 16.2375C26.0284 16.2375 26.4034 16.6125 26.4034 17.0813ZM28.7784 17.925C28.8409 19.0813 28.8409 22.55 28.7784 23.7063C28.7159 24.8313 28.4659 25.8 27.6534 26.6438C26.8409 27.4563 25.8409 27.7063 24.7159 27.7688C23.5597 27.8313 20.0909 27.8313 18.9347 27.7688C17.8097 27.7063 16.8409 27.4563 15.9972 26.6438C15.1847 25.8 14.9347 24.8313 14.8722 23.7063C14.8097 22.55 14.8097 19.0813 14.8722 17.925C14.9347 16.8 15.1847 15.8 15.9972 14.9875C16.8409 14.175 17.8097 13.925 18.9347 13.8625C20.0909 13.8 23.5597 13.8 24.7159 13.8625C25.8409 13.925 26.8409 14.175 27.6534 14.9875C28.4659 15.8 28.7159 16.8 28.7784 17.925ZM27.2784 24.925C27.6534 24.0188 27.5597 21.8313 27.5597 20.8C27.5597 19.8 27.6534 17.6125 27.2784 16.675C27.0284 16.0813 26.5597 15.5813 25.9659 15.3625C25.0284 14.9875 22.8409 15.0813 21.8409 15.0813C20.8097 15.0813 18.6222 14.9875 17.7159 15.3625C17.0909 15.6125 16.6222 16.0813 16.3722 16.675C15.9972 17.6125 16.0909 19.8 16.0909 20.8C16.0909 21.8313 15.9972 24.0188 16.3722 24.925C16.6222 25.55 17.0909 26.0188 17.7159 26.2688C18.6222 26.6438 20.8097 26.55 21.8409 26.55C22.8409 26.55 25.0284 26.6438 25.9659 26.2688C26.5597 26.0188 27.0597 25.55 27.2784 24.925Z" fill="#2D2D2D"/>
<a href="https://www.figma.com/design/aXUfYSl5s2MZJU0GcGxzrX?node-id=47-451">
<rect fill="black" fill-opacity="0" x="0.18125" y="-1.2" width="14" height="18.4"/>
</a>
</svg>
