<svg width="26" height="22" viewBox="0 0 26 22" fill="none" xmlns="http://www.w3.org/2000/svg">
<path d="M1.63053 10.1169C1.68565 10.0891 1.74079 10.0628 1.79453 10.0378C2.72874 9.60212 3.67535 9.19419 4.62058 8.78627C4.67156 8.78627 4.75697 8.72661 4.80519 8.70718C4.87822 8.67527 4.95126 8.64475 5.02429 8.61283L5.44455 8.43107C5.72564 8.31036 6.00534 8.18965 6.28642 8.06893C6.84723 7.82751 7.40802 7.58609 7.96882 7.34327C9.09042 6.86043 10.2134 6.37619 11.335 5.89334C12.4566 5.41049 13.5796 4.92626 14.7012 4.44341C15.8228 3.96056 16.9458 3.47632 18.0674 2.99348C19.189 2.51063 20.312 2.02639 21.4336 1.54354C21.683 1.43532 21.953 1.27437 22.2203 1.22719C22.4449 1.18696 22.664 1.10926 22.89 1.06625C23.3185 0.984383 23.7911 0.951083 24.2017 1.13007C24.3437 1.19251 24.4746 1.27992 24.5834 1.38953C25.1043 1.90845 25.0312 2.76038 24.921 3.4902C24.1535 8.57676 23.386 13.6647 22.6172 18.7513C22.5124 19.4492 22.3691 20.2151 21.8221 20.6563C21.3591 21.0295 20.7005 21.0712 20.1287 20.913C19.5569 20.7534 19.0526 20.419 18.5579 20.0902C16.5062 18.7221 14.4532 17.3541 12.4015 15.986C11.9137 15.6613 11.3709 15.2367 11.3764 14.6471C11.3791 14.2919 11.5899 13.9755 11.8049 13.6938C13.5879 11.3518 16.1604 9.74225 18.0743 7.50839C18.3443 7.19343 18.5565 6.62455 18.1859 6.44279C17.9654 6.33457 17.7119 6.48164 17.5107 6.62178C14.9809 8.39083 12.4525 10.1613 9.92269 11.9303C9.09734 12.5075 8.23202 13.1014 7.23719 13.2429C6.34707 13.3706 5.45145 13.1208 4.59027 12.8655C3.86826 12.6518 3.1476 12.4326 2.42972 12.2064C2.04804 12.0871 1.65396 11.9581 1.35909 11.6875C1.06423 11.417 0.894768 10.9619 1.07252 10.6011C1.18412 10.375 1.40046 10.232 1.62781 10.1155L1.63053 10.1169Z" stroke="#2D2D2D" stroke-width="1.2"/>
</svg>
