<?xml version="1.0" standalone="no"?>
<!DOCTYPE svg PUBLIC "-//W3C//DTD SVG 20010904//EN"
 "http://www.w3.org/TR/2001/REC-SVG-20010904/DTD/svg10.dtd">
<svg version="1.0" xmlns="http://www.w3.org/2000/svg"
 width="467.000000pt" height="572.000000pt" viewBox="0 0 467.000000 572.000000"
 preserveAspectRatio="xMidYMid meet">

<g transform="translate(0.000000,572.000000) scale(0.100000,-0.100000)"
fill="#000000" stroke="none">
<path d="M2281 5628 c-46 -143 -111 -258 -187 -328 -68 -64 -125 -101 -261
-172 -153 -79 -300 -135 -603 -228 -441 -136 -762 -338 -928 -581 -114 -168
-219 -463 -265 -749 -43 -261 -43 -282 -17 -550 16 -161 16 -254 0 -365 -17
-116 -18 -266 -1 -435 15 -164 48 -309 103 -455 133 -355 256 -514 541 -699
167 -110 320 -175 632 -271 292 -90 545 -197 686 -291 137 -90 232 -224 294
-412 l27 -83 35 3 c36 3 36 4 64 90 39 122 100 248 144 297 111 123 398 266
765 381 321 100 491 171 659 274 292 178 460 379 548 656 103 325 153 680 123
890 -35 250 -34 235 -14 373 41 284 17 560 -82 942 -67 262 -200 471 -393 623
-192 152 -391 259 -606 326 -44 14 -147 47 -230 72 -296 93 -560 212 -697 316
-106 81 -182 197 -239 363 -22 67 -31 80 -50 83 -22 3 -26 -5 -48 -70z m69
-350 c18 -189 91 -336 222 -450 91 -79 156 -116 331 -190 141 -59 325 -120
517 -173 230 -62 370 -114 518 -192 130 -68 199 -118 298 -217 169 -171 259
-341 299 -566 15 -87 21 -350 8 -350 -5 0 -19 34 -31 74 -50 157 -155 328
-269 437 -221 212 -470 345 -863 459 -119 35 -318 105 -400 141 -70 31 -90 40
-145 67 -269 132 -371 242 -455 493 -24 71 -31 84 -51 87 -21 2 -26 -5 -43
-60 -65 -212 -167 -349 -331 -447 -207 -123 -393 -197 -775 -311 -41 -13 -79
-26 -85 -29 -5 -4 -28 -13 -50 -20 -99 -33 -317 -141 -408 -203 -206 -139
-316 -257 -407 -438 -44 -87 -100 -224 -100 -245 0 -7 -5 -17 -11 -21 -8 -5
-10 47 -6 192 5 217 15 270 76 414 44 106 142 253 214 323 160 154 474 315
822 422 715 219 928 342 1028 595 30 77 57 187 57 236 0 35 17 80 26 71 3 -3
9 -47 14 -99z m-6 -730 c3 -18 7 -62 11 -97 15 -177 115 -346 270 -456 153
-109 403 -210 779 -315 320 -89 507 -166 681 -283 89 -59 253 -230 306 -317
53 -88 99 -192 99 -224 0 -30 -71 -174 -126 -257 -155 -233 -475 -416 -1020
-583 -658 -201 -858 -328 -961 -606 -18 -49 -43 -156 -43 -186 0 -52 -18 -20
-30 52 -32 201 -135 367 -294 473 -154 102 -419 204 -836 321 -256 72 -472
166 -620 271 -88 62 -203 177 -266 265 -53 75 -124 222 -124 258 0 57 122 265
210 360 162 174 469 331 910 466 150 46 340 109 375 124 17 8 53 22 80 32 194
71 370 189 446 300 60 88 105 228 125 387 6 54 21 62 28 15z m2191 -2320 c-29
-157 -80 -282 -172 -422 -59 -87 -108 -137 -211 -214 -207 -153 -443 -257
-892 -392 -178 -53 -399 -139 -525 -203 -101 -52 -133 -74 -201 -142 -106
-106 -158 -211 -188 -386 -15 -82 -19 -78 -40 31 -29 155 -88 264 -199 367
-108 101 -275 188 -527 275 -124 43 -126 44 -365 111 -391 110 -612 223 -795
407 -108 107 -176 203 -226 319 -61 140 -76 216 -81 411 -3 96 -2 172 2 168 4
-4 24 -49 45 -100 91 -225 184 -356 344 -487 173 -141 385 -255 607 -327 607
-194 817 -288 974 -436 81 -76 141 -179 189 -325 27 -82 28 -83 61 -83 36 0
35 -1 75 125 35 114 87 211 144 270 126 128 424 275 786 385 372 114 564 204
786 371 193 144 314 318 400 569 l19 55 3 -130 c2 -87 -2 -159 -13 -217z"/>
</g>
</svg>
