<svg width="224" height="40" viewBox="0 0 224 40" fill="none" xmlns="http://www.w3.org/2000/svg">
<path d="M15.38 39.9173H15.0806V38.2005C15.0806 36.9128 15.2802 35.9471 15.6795 35.0887C16.0788 34.2303 16.7776 33.5865 17.7759 33.0499C18.7741 32.5134 20.1717 31.9769 21.8687 31.4404C24.564 30.582 26.4607 29.509 27.6586 28.2213C28.7567 26.8264 29.3556 25.2169 29.3556 23.2854V22.7489C29.3556 20.8175 28.7567 19.1006 27.6586 17.813C26.5605 16.4181 24.6638 15.3451 21.8687 14.594C20.0718 14.0574 18.7741 13.5209 17.7759 12.9844C16.7776 12.4479 16.0788 11.6968 15.6795 10.9457C15.2802 10.1946 15.0806 9.01423 15.0806 7.83391V6.00977H15.2802C15.4799 6.86818 15.7793 7.6193 16.1786 8.26311C16.5779 8.90693 17.2767 9.44344 18.275 9.97995C19.2732 10.5165 20.571 11.053 22.268 11.5895C24.1647 12.126 25.7619 13.0917 27.0596 14.272C28.3574 15.4524 29.0561 16.9546 29.4554 18.7787C29.5553 19.3153 29.7549 19.9591 29.8547 21.0321C29.9546 21.5686 30.0544 22.7489 30.0544 22.7489V23.2854C30.0544 23.2854 29.9546 24.5731 29.8547 25.0023C29.7549 26.0753 29.5553 26.7191 29.4554 27.1483C29.0561 28.9725 28.3574 30.4747 27.0596 31.655C25.7619 32.8353 24.1647 33.6938 22.268 34.3376C20.571 34.8741 19.1734 35.4106 18.275 35.9471C17.2767 36.4836 16.5779 37.0201 16.1786 37.6639C15.8792 38.2005 15.5797 38.9516 15.38 39.9173Z" fill="url(#paint0_linear_62_50)"/>
<path d="M15.0808 39.9173H14.8811C14.6815 39.0589 14.382 38.3078 13.9827 37.6639C13.5834 37.0201 12.8846 36.4836 11.8863 35.9471C10.8881 35.4106 9.59035 34.8741 7.89332 34.3376C5.99664 33.8011 4.39943 32.8353 3.1017 31.655C1.80397 30.4747 1.20501 28.8652 0.606061 27.041C0.506236 26.6118 0.306585 25.7534 0.306585 25.6461C0.206759 24.7877 0.106934 23.1781 0.106934 23.1781V22.6416C0.106934 22.6416 0.206759 21.0321 0.40641 20.281C0.40641 20.0664 0.606061 19.208 0.705887 18.7787C1.20501 17.1692 1.80397 15.4524 3.1017 14.272C4.39943 13.0917 5.99664 12.2333 7.89332 11.5895C9.59035 11.053 10.9879 10.5165 11.8863 9.97995C12.8846 9.44344 13.5834 8.90693 13.9827 8.26311C14.382 7.6193 14.6815 6.86818 14.8811 6.00977H15.0808V7.7266C15.0808 9.01423 14.8811 9.97995 14.4818 10.8384C14.0825 11.6968 13.3837 12.3406 12.3855 12.8771C11.3872 13.4136 9.98966 13.9501 8.29262 14.4866C5.59734 15.3451 3.70065 16.4181 2.50275 17.7057C1.40466 19.1006 0.805712 20.7102 0.805712 22.6416V23.1781C0.805712 25.1096 1.40466 26.8264 2.50275 28.114C3.60083 29.509 5.49751 30.582 8.29262 31.3331C10.0895 31.8696 11.3872 32.4061 12.3855 32.9426C13.3837 33.4792 14.0825 34.2303 14.4818 34.9814C14.8811 35.8398 15.0808 36.8055 15.0808 38.0932V39.9173Z" fill="url(#paint1_linear_62_50)"/>
<path d="M15.38 33.8002H15.0806V32.0834C15.0806 30.7958 15.2802 29.83 15.6795 28.9716C16.0788 28.1132 16.7776 27.4694 17.7759 26.9329C18.7741 26.3964 20.1717 25.8599 21.8687 25.3234C24.564 24.4649 26.4607 23.3919 27.6586 22.1043C28.7567 20.7094 29.3556 19.0998 29.3556 17.1684V16.6319C29.3556 14.7004 28.7567 12.9836 27.6586 11.696C26.5605 10.301 24.6638 9.228 21.8687 8.47688C20.0718 7.94037 18.7741 7.40386 17.7759 6.86735C16.7776 6.33084 16.0788 5.57972 15.6795 4.8286C15.2802 4.07749 15.0806 3.00447 15.0806 1.71684V0H15.2802C15.4799 0.858419 15.7793 1.60953 16.1786 2.25335C16.5779 2.89716 17.2767 3.43367 18.275 3.97019C19.2732 4.5067 20.571 5.04321 22.268 5.57972C24.1647 6.11623 25.7619 7.08195 27.0596 8.26228C28.3574 9.44261 29.0561 10.9448 29.4554 12.769C29.5553 13.3055 29.7549 13.9493 29.8547 15.0223C29.9546 15.5588 30.0544 16.7392 30.0544 16.7392V17.1684C30.0544 17.1684 29.9546 18.456 29.8547 18.8852C29.7549 19.9582 29.5553 20.602 29.4554 21.0313C29.0561 22.8554 28.3574 24.3576 27.0596 25.538C25.7619 26.7183 24.1647 27.5767 22.268 28.2205C20.571 28.757 19.1734 29.2935 18.275 29.83C17.2767 30.3666 16.5779 30.9031 16.1786 31.5469C15.8792 32.1907 15.5797 32.9418 15.38 33.8002Z" fill="url(#paint2_linear_62_50)"/>
<path d="M15.0808 33.8002H14.8811C14.6815 32.9418 14.382 32.1907 13.9827 31.5469C13.5834 30.9031 12.8846 30.3666 11.8863 29.83C10.8881 29.2935 9.59035 28.757 7.89332 28.2205C5.99664 27.684 4.39943 26.7183 3.1017 25.538C1.80397 24.3576 1.20501 22.7481 0.606061 20.924C0.506236 20.4947 0.306585 19.6363 0.306585 19.529C0.206759 18.7779 0.106934 17.1684 0.106934 17.1684V16.6319C0.106934 16.6319 0.206759 15.0223 0.40641 14.2712C0.40641 14.0566 0.606061 13.1982 0.705887 12.769C1.20501 11.0521 1.80397 9.44261 3.1017 8.26228C4.39943 7.08195 5.99664 6.22354 7.89332 5.57972C9.59035 5.04321 10.9879 4.5067 11.8863 3.97019C12.8846 3.43367 13.5834 2.89716 13.9827 2.25335C14.382 1.60953 14.6815 0.858419 14.8811 0H15.0808V1.71684C15.0808 3.00447 14.8811 3.97019 14.4818 4.8286C14.0825 5.68702 13.3837 6.33084 12.3855 6.86735C11.3872 7.40386 9.98966 7.94037 8.29262 8.47688C5.59734 9.3353 3.70065 10.4083 2.50275 11.696C1.40466 13.0909 0.805712 14.7004 0.805712 16.6319V17.1684C0.805712 19.0998 1.40466 20.8167 2.50275 22.1043C3.60083 23.4992 5.49751 24.5722 8.29262 25.3234C10.0895 25.8599 11.3872 26.3964 12.3855 26.9329C13.3837 27.4694 14.0825 28.2205 14.4818 28.9716C14.8811 29.7227 15.0808 30.7958 15.0808 32.0834V33.8002Z" fill="url(#paint3_linear_62_50)"/>
<path d="M213.498 20.823L211.277 23.2937V31.4313H209.076V1.3125H211.277V20.4701L213.105 18.1563L219.688 10.2148H222.4L214.932 19.1759L223.107 31.4313H220.513L213.498 20.823Z" fill="#2D2D2D"/>
<path d="M203.828 31.4306H201.627V10.2141H203.828V31.4306ZM201.313 4.09619C201.313 3.65172 201.437 3.27262 201.686 2.95889C201.935 2.64515 202.289 2.48828 202.748 2.48828C203.206 2.48828 203.56 2.64515 203.809 2.95889C204.071 3.27262 204.202 3.65172 204.202 4.09619C204.202 4.54065 204.071 4.91975 203.809 5.23348C203.56 5.53415 203.206 5.68448 202.748 5.68448C202.289 5.68448 201.935 5.53415 201.686 5.23348C201.437 4.91975 201.313 4.54065 201.313 4.09619Z" fill="#2D2D2D"/>
<path d="M196.144 31.4313H193.943V1.3125H196.144V31.4313Z" fill="#2D2D2D"/>
<path d="M183.094 31.8231C180.592 31.8231 178.634 31.0061 177.219 29.372C175.804 27.738 175.083 25.4111 175.057 22.3914V19.803C175.057 16.6918 175.738 14.2538 177.101 12.489C178.463 10.7112 180.337 9.82227 182.721 9.82227C185.027 9.82227 186.782 10.5739 187.988 12.0773C189.206 13.5806 189.828 15.8813 189.855 18.9795V21.0188H177.219V22.2149C177.219 24.6464 177.736 26.5222 178.771 27.8426C179.819 29.1629 181.293 29.823 183.193 29.823C185.289 29.823 186.985 29.0583 188.282 27.5288L189.422 28.9799C188.033 30.8754 185.924 31.8231 183.094 31.8231ZM182.721 11.8616C181.005 11.8616 179.682 12.4694 178.752 13.6852C177.835 14.8878 177.33 16.6526 177.238 18.9795H187.673V18.4108C187.568 14.0446 185.918 11.8616 182.721 11.8616Z" fill="#2D2D2D"/>
<path d="M173.425 12.2537C172.901 12.1622 172.443 12.1165 172.05 12.1165C170.845 12.1165 169.829 12.5283 169.004 13.3518C168.192 14.1754 167.615 15.3192 167.275 16.7833V31.4309H165.093V10.2144H167.235L167.275 13.391C168.31 11.0119 169.934 9.82227 172.148 9.82227C172.724 9.82227 173.163 9.90724 173.465 10.0772L173.425 12.2537Z" fill="#2D2D2D"/>
<path d="M158.195 31.4309C157.999 30.7512 157.868 29.7707 157.802 28.4896C157.147 29.5485 156.302 30.3721 155.267 30.9603C154.245 31.5355 153.132 31.8231 151.927 31.8231C150.093 31.8231 148.665 31.3067 147.643 30.274C146.621 29.2413 146.11 27.7707 146.11 25.8621C146.11 23.7836 146.817 22.1365 148.232 20.9207C149.66 19.705 151.625 19.0906 154.128 19.0775H157.783V16.1166C157.783 14.6002 157.403 13.5152 156.643 12.8616C155.896 12.1949 154.796 11.8616 153.342 11.8616C151.992 11.8616 150.885 12.2537 150.02 13.0381C149.156 13.8224 148.723 14.8355 148.723 16.0774L146.542 16.0578C146.542 14.3192 147.197 12.8485 148.507 11.6459C149.817 10.4301 151.462 9.82227 153.44 9.82227C155.575 9.82227 157.193 10.3582 158.294 11.4302C159.394 12.5021 159.944 14.0643 159.944 16.1166V26.5288C159.944 28.6073 160.134 30.1629 160.514 31.1956V31.4309H158.195ZM152.202 29.725C153.486 29.725 154.619 29.3916 155.601 28.7249C156.597 28.0583 157.324 27.1693 157.783 26.0582V20.9011H154.324C152.333 20.9273 150.833 21.3717 149.824 22.2345C148.815 23.0842 148.311 24.2346 148.311 25.6856C148.311 28.3785 149.608 29.725 152.202 29.725Z" fill="#2D2D2D"/>
<path d="M141.412 31.431H139.152V17.7638H125.71V31.431H123.47V2.88086H125.71V15.6853H139.152V2.88086H141.412V31.431Z" fill="#2D2D2D"/>
<path d="M107.866 31.4309C107.669 30.7512 107.538 29.7707 107.473 28.4896C106.818 29.5485 105.973 30.3721 104.938 30.9603C103.916 31.5355 102.802 31.8231 101.597 31.8231C99.7629 31.8231 98.3349 31.3067 97.3131 30.274C96.2912 29.2413 95.7803 27.7707 95.7803 25.8621C95.7803 23.7836 96.4877 22.1365 97.9026 20.9207C99.3306 19.705 101.296 19.0906 103.798 19.0775H107.453V16.1166C107.453 14.6002 107.073 13.5152 106.313 12.8616C105.567 12.1949 104.466 11.8616 103.012 11.8616C101.663 11.8616 100.556 12.2537 99.6909 13.0381C98.8262 13.8224 98.3939 14.8355 98.3939 16.0774L96.2126 16.0578C96.2126 14.3192 96.8676 12.8485 98.1777 11.6459C99.4878 10.4301 101.132 9.82227 103.11 9.82227C105.246 9.82227 106.864 10.3582 107.964 11.4302C109.065 12.5021 109.615 14.0643 109.615 16.1166V26.5288C109.615 28.6073 109.805 30.1629 110.185 31.1956V31.4309H107.866ZM101.872 29.725C103.156 29.725 104.289 29.3916 105.272 28.7249C106.267 28.0583 106.995 27.1693 107.453 26.0582V20.9011H103.994C102.003 20.9273 100.503 21.3717 99.4944 22.2345C98.4856 23.0842 97.9812 24.2346 97.9812 25.6856C97.9812 28.3785 99.2782 29.725 101.872 29.725Z" fill="#2D2D2D"/>
<path d="M80.1372 10.2144L80.1962 13.5871C80.825 12.4367 81.6242 11.5217 82.5936 10.8419C83.5762 10.1621 84.6898 9.82227 85.9343 9.82227C89.6419 9.82227 91.5415 12.2864 91.6332 17.2147V31.4309H89.4716V17.45C89.4585 15.5545 89.1244 14.1558 88.4694 13.2538C87.8143 12.3518 86.7859 11.9008 85.3841 11.9008C84.2443 11.9008 83.2159 12.3322 82.2989 13.1949C81.3949 14.0446 80.7071 15.2146 80.2355 16.7049V31.4309H78.0542V10.2144H80.1372Z" fill="#2D2D2D"/>
<path d="M67.6578 27.843L72.7278 10.2148H75.0663L67.5791 34.8236L67.1665 36.0001C66.1577 38.6669 64.6118 40.0003 62.5288 40.0003C62.0309 40.0003 61.5069 39.9088 60.9567 39.7258L60.937 37.7257C61.2384 37.8172 61.5724 37.863 61.9392 37.863C62.8825 37.863 63.6555 37.5819 64.2581 37.0198C64.8607 36.4577 65.3586 35.5491 65.7516 34.2942L66.6555 31.2941L59.9741 10.2148H62.3716L67.6578 27.843Z" fill="#2D2D2D"/>
<path d="M58.5977 12.2537C58.0737 12.1622 57.6152 12.1165 57.2222 12.1165C56.0169 12.1165 55.0016 12.5283 54.1762 13.3518C53.364 14.1754 52.7875 15.3192 52.4469 16.7833V31.4309H50.2656V10.2144H52.4076L52.4469 13.391C53.4819 11.0119 55.1064 9.82227 57.3204 9.82227C57.8969 9.82227 58.3357 9.90724 58.637 10.0772L58.5977 12.2537Z" fill="#2D2D2D"/>
<path d="M44.3691 31.431H42.1289V2.88086H44.3691V31.431Z" fill="#2D2D2D"/>
<defs>
<linearGradient id="paint0_linear_62_50" x1="22.6374" y1="6.05655" x2="22.6374" y2="39.8675" gradientUnits="userSpaceOnUse">
<stop stop-color="#956373"/>
<stop offset="0.1311" stop-color="#8F5F6E"/>
<stop offset="0.3065" stop-color="#7E5461"/>
<stop offset="0.5069" stop-color="#62414C"/>
<stop offset="0.7258" stop-color="#3B272E"/>
<stop offset="0.9574" stop-color="#0A0708"/>
<stop offset="1"/>
</linearGradient>
<linearGradient id="paint1_linear_62_50" x1="7.6188" y1="6.05655" x2="7.6188" y2="39.8675" gradientUnits="userSpaceOnUse">
<stop stop-color="#956373"/>
<stop offset="0.1311" stop-color="#8F5F6E"/>
<stop offset="0.3065" stop-color="#7E5461"/>
<stop offset="0.5069" stop-color="#62414C"/>
<stop offset="0.7258" stop-color="#3B272E"/>
<stop offset="0.9574" stop-color="#0A0708"/>
<stop offset="1"/>
</linearGradient>
<linearGradient id="paint2_linear_62_50" x1="22.6324" y1="-7.35514e-09" x2="22.6324" y2="33.811" gradientUnits="userSpaceOnUse">
<stop stop-color="#956373"/>
<stop offset="0.1311" stop-color="#8F5F6E"/>
<stop offset="0.3065" stop-color="#7E5461"/>
<stop offset="0.5069" stop-color="#62414C"/>
<stop offset="0.7258" stop-color="#3B272E"/>
<stop offset="0.9574" stop-color="#0A0708"/>
<stop offset="1"/>
</linearGradient>
<linearGradient id="paint3_linear_62_50" x1="7.61381" y1="-8.07996e-09" x2="7.61381" y2="33.811" gradientUnits="userSpaceOnUse">
<stop stop-color="#956373"/>
<stop offset="0.1311" stop-color="#8F5F6E"/>
<stop offset="0.3065" stop-color="#7E5461"/>
<stop offset="0.5069" stop-color="#62414C"/>
<stop offset="0.7258" stop-color="#3B272E"/>
<stop offset="0.9574" stop-color="#0A0708"/>
<stop offset="1"/>
</linearGradient>
</defs>
</svg>
